<svg xmlns="http://www.w3.org/2000/svg" viewBox="0 0 400 250" width="400" height="250">
  <rect width="400" height="250" fill="#EAE4DA"/>
  <!-- Floor -->
  <rect x="0" y="190" width="400" height="60" fill="#C4A878"/>
  <line x1="0" y1="204" x2="400" y2="204" stroke="#A88C60" stroke-width="1" opacity="0.5"/>
  <line x1="0" y1="222" x2="400" y2="222" stroke="#A88C60" stroke-width="1" opacity="0.5"/>
  <!-- Wall accent panel -->
  <rect x="0" y="0" width="400" height="190" fill="#DDD6C8"/>
  <!-- Desk -->
  <rect x="30" y="135" width="190" height="12" rx="3" fill="#7A6450"/>
  <rect x="38" y="147" width="8" height="48" rx="3" fill="#6A5442"/>
  <rect x="200" y="147" width="8" height="48" rx="3" fill="#6A5442"/>
  <!-- Chair -->
  <rect x="80" y="155" width="70" height="40" rx="6" fill="#8B9E7A"/>
  <rect x="80" y="143" width="70" height="18" rx="4" fill="#7A8E6A"/>
  <rect x="78" y="155" width="8" height="8" rx="2" fill="#6A7E5A"/>
  <rect x="140" y="155" width="8" height="8" rx="2" fill="#6A7E5A"/>
  <rect x="84" y="192" width="6" height="20" rx="2" fill="#5A4A35"/>
  <rect x="138" y="192" width="6" height="20" rx="2" fill="#5A4A35"/>
  <!-- Laptop on desk -->
  <rect x="100" y="118" width="70" height="18" rx="2" fill="#4A4A4A"/>
  <rect x="95" y="133" width="80" height="6" rx="2" fill="#3A3A3A"/>
  <!-- Desk lamp -->
  <rect x="185" y="100" width="4" height="38" fill="#8A7A60"/>
  <path d="M189 100 Q210 85 220 95" stroke="#8A7A60" stroke-width="4" fill="none" stroke-linecap="round"/>
  <ellipse cx="220" cy="95" rx="18" ry="10" fill="#F0E0B0" opacity="0.85"/>
  <!-- Window -->
  <rect x="270" y="20" width="110" height="150" fill="#B8D0C8" rx="4"/>
  <rect x="270" y="20" width="110" height="150" fill="none" stroke="#8A7A60" stroke-width="4" rx="4"/>
  <line x1="325" y1="20" x2="325" y2="170" stroke="#8A7A60" stroke-width="2.5"/>
  <line x1="270" y1="95" x2="380" y2="95" stroke="#8A7A60" stroke-width="2.5"/>
  <rect x="270" y="20" width="110" height="150" fill="#F0E4C0" opacity="0.15" rx="4"/>
  <!-- Shelf -->
  <rect x="30" y="70" width="130" height="8" rx="3" fill="#7A6450"/>
  <rect x="40" y="50" width="18" height="22" rx="2" fill="#E8602A" opacity="0.8"/>
  <rect x="62" y="48" width="14" height="24" rx="2" fill="#1E3A2F" opacity="0.8"/>
  <rect x="80" y="52" width="16" height="20" rx="2" fill="#8B9E7A" opacity="0.8"/>
  <rect x="100" y="47" width="12" height="25" rx="2" fill="#C8A870" opacity="0.8"/>
  <!-- Small plant on shelf -->
  <rect x="133" y="56" width="10" height="16" rx="3" fill="#7A6248"/>
  <ellipse cx="130" cy="48" rx="12" ry="14" fill="#5A8A46"/>
  <ellipse cx="140" cy="45" rx="9" ry="11" fill="#4E7A3C"/>
</svg>