<svg xmlns="http://www.w3.org/2000/svg" viewBox="0 0 400 250" width="400" height="250">
  <defs>
    <linearGradient id="wall-m" x1="0" y1="0" x2="0" y2="1">
      <stop offset="0%" stop-color="#C8C0B4"/>
      <stop offset="55%" stop-color="#D4CCB8"/>
      <stop offset="100%" stop-color="#E0D8CC"/>
    </linearGradient>
    <linearGradient id="floor-m" x1="0" y1="0" x2="0" y2="1">
      <stop offset="0%" stop-color="#B89068"/>
      <stop offset="100%" stop-color="#96724E"/>
    </linearGradient>
    <linearGradient id="tvscreen" x1="0" y1="0" x2="0" y2="1">
      <stop offset="0%" stop-color="#1A2830"/>
      <stop offset="100%" stop-color="#0E1C24"/>
    </linearGradient>
    <linearGradient id="sky-m" x1="0" y1="0" x2="0" y2="1">
      <stop offset="0%" stop-color="#4E7A9C"/>
      <stop offset="50%" stop-color="#8AB4CA"/>
      <stop offset="100%" stop-color="#C0D8E0"/>
    </linearGradient>
    <clipPath id="art-clip-m">
      <rect x="168" y="34" width="94" height="60" rx="3"/>
    </clipPath>
  </defs>

  <!-- Wall -->
  <rect width="400" height="195" fill="url(#wall-m)"/>
  <!-- Floor -->
  <rect x="0" y="195" width="400" height="55" fill="url(#floor-m)"/>
  <line x1="0" y1="210" x2="400" y2="210" stroke="#96724E" stroke-width="1" opacity="0.45"/>
  <line x1="100" y1="195" x2="100" y2="250" stroke="#96724E" stroke-width="1" opacity="0.28"/>
  <line x1="260" y1="195" x2="260" y2="250" stroke="#96724E" stroke-width="1" opacity="0.28"/>

  <!-- TV console -->
  <rect x="100" y="128" width="200" height="12" rx="3" fill="#5C4A35"/>
  <!-- Console top highlight -->
  <rect x="100" y="128" width="200" height="4" rx="1" fill="#7A6050" opacity="0.35"/>
  <rect x="130" y="140" width="140" height="56" rx="4" fill="#4A3828"/>
  <!-- TV screen -->
  <rect x="140" y="146" width="120" height="46" rx="3" fill="url(#tvscreen)"/>
  <rect x="140" y="146" width="120" height="46" fill="none" stroke="#2A3840" stroke-width="1.5" rx="3"/>
  <!-- Screen subtle reflection -->
  <line x1="144" y1="150" x2="158" y2="166" stroke="#4A6878" stroke-width="3" opacity="0.22" stroke-linecap="round"/>
  <!-- TV stand legs -->
  <rect x="148" y="195" width="8" height="14" rx="2" fill="#3A2E22"/>
  <rect x="240" y="195" width="8" height="14" rx="2" fill="#3A2E22"/>

  <!-- Sofa shadow -->
  <ellipse cx="68" cy="213" rx="56" ry="5" fill="#1E3A2F" opacity="0.1"/>

  <!-- Sofa -->
  <rect x="14" y="146" width="106" height="58" rx="10" fill="#8B9E7A"/>
  <rect x="14" y="136" width="106" height="22" rx="7" fill="#7A8E6A"/>
  <rect x="8" y="143" width="18" height="52" rx="6" fill="#7A8E6A"/>
  <rect x="108" y="143" width="18" height="52" rx="6" fill="#7A8E6A"/>
  <!-- Sofa cushions -->
  <rect x="22" y="146" width="42" height="42" rx="7" fill="#96AA84"/>
  <rect x="70" y="146" width="42" height="42" rx="7" fill="#96AA84"/>
  <!-- Cushion stitch lines -->
  <line x1="22" y1="165" x2="64" y2="165" stroke="#7A8E6A" stroke-width="1" opacity="0.38"/>
  <line x1="70" y1="165" x2="112" y2="165" stroke="#7A8E6A" stroke-width="1" opacity="0.38"/>
  <!-- Sofa legs -->
  <rect x="18" y="196" width="8" height="12" rx="2" fill="#4A3828"/>
  <rect x="100" y="196" width="8" height="12" rx="2" fill="#4A3828"/>

  <!-- Throw pillow on sofa back -->
  <rect x="50" y="136" width="30" height="30" rx="5" fill="#E8602A" opacity="0.88"/>
  <line x1="50" y1="151" x2="80" y2="151" stroke="#C84A1A" stroke-width="1" opacity="0.28"/>
  <line x1="65" y1="136" x2="65" y2="166" stroke="#C84A1A" stroke-width="1" opacity="0.28"/>

  <!-- Armchair shadow -->
  <ellipse cx="330" cy="213" rx="52" ry="5" fill="#1E3A2F" opacity="0.1"/>

  <!-- Armchair (right) -->
  <rect x="278" y="150" width="104" height="54" rx="10" fill="#C47858"/>
  <rect x="278" y="138" width="104" height="22" rx="7" fill="#B06848"/>
  <rect x="268" y="146" width="18" height="48" rx="6" fill="#B06848"/>
  <rect x="374" y="146" width="18" height="48" rx="6" fill="#B06848"/>
  <!-- Seat cushion highlight -->
  <rect x="284" y="150" width="92" height="42" rx="8" fill="#CE8868" opacity="0.65"/>
  <rect x="282" y="196" width="8" height="12" rx="2" fill="#4A3828"/>
  <rect x="366" y="196" width="8" height="12" rx="2" fill="#4A3828"/>

  <!-- Coffee table -->
  <rect x="146" y="187" width="106" height="9" rx="3" fill="#6B5240"/>
  <rect x="146" y="187" width="106" height="3" rx="1" fill="#8A6A50" opacity="0.4"/>
  <rect x="156" y="196" width="6" height="22" rx="2" fill="#5A4232"/>
  <rect x="230" y="196" width="6" height="22" rx="2" fill="#5A4232"/>
  <!-- Stacked magazines on table -->
  <rect x="166" y="183" width="30" height="5" rx="1" fill="#C8B898"/>
  <rect x="168" y="178" width="28" height="5" rx="1" fill="#B8A888"/>
  <!-- Small cup -->
  <rect x="208" y="181" width="14" height="7" rx="2" fill="#D4C8B8"/>

  <!-- Plant (left, tall) — leaf paths -->
  <!-- Pot -->
  <rect x="47" y="86" width="14" height="44" rx="3" fill="#7A6248"/>
  <rect x="44" y="126" width="20" height="8" rx="3" fill="#6B5240"/>
  <!-- Leaves -->
  <path d="M54 86 Q32 62 36 36 Q50 54 54 26 Q58 54 76 38 Q72 64 54 86Z" fill="#5A8A46"/>
  <path d="M54 76 Q36 54 40 30 Q52 48 54 22 Q56 48 68 34 Q68 58 54 76Z" fill="#4E7A3C" opacity="0.85"/>
  <path d="M54 66 Q40 48 44 28 Q52 42 54 18 Q56 40 64 28 Q64 50 54 66Z" fill="#6A9A54" opacity="0.72"/>

  <!-- Nature landscape painting above TV -->
  <rect x="162" y="28" width="106" height="72" rx="5" fill="#F0EAE0"/>
  <rect x="162" y="28" width="106" height="72" fill="none" stroke="#C8B898" stroke-width="2.5" rx="5"/>
  <g clip-path="url(#art-clip-m)">
    <rect x="168" y="34" width="94" height="60" fill="url(#sky-m)"/>
    <!-- Sun disc -->
    <circle cx="248" cy="42" r="8" fill="#F8E070" opacity="0.68"/>
    <!-- Distant mountains -->
    <polygon points="168,68 182,52 196,61 210,46 224,57 242,48 262,57 262,70 168,70" fill="#9EB8CA" opacity="0.6"/>
    <!-- Mid hills -->
    <path d="M168 76 Q180 67 194 72 Q208 64 222 70 Q238 64 253 70 L262 73 L262 80 L168 80 Z" fill="#6A8A6A"/>
    <!-- Forest floor -->
    <rect x="168" y="76" width="94" height="18" fill="#3A5A2E"/>
    <!-- Pine trees — left -->
    <polygon points="176,76 173,66 179,66" fill="#2A4428"/>
    <polygon points="185,76 181,63 189,63" fill="#243C24"/>
    <!-- Pine trees — right -->
    <polygon points="248,76 244,65 252,65" fill="#2A4428"/>
    <polygon points="257,76 253,64 261,64" fill="#243C24"/>
  </g>
</svg>
