<svg xmlns="http://www.w3.org/2000/svg" viewBox="0 0 800 600" width="800" height="600">
  <defs>
    <linearGradient id="wall-l" x1="0" y1="0" x2="0" y2="1">
      <stop offset="0%" stop-color="#EBE5DA"/>
      <stop offset="50%" stop-color="#E2DCD0"/>
      <stop offset="100%" stop-color="#D8D2C6"/>
    </linearGradient>
    <linearGradient id="floor-l" x1="0" y1="0" x2="0" y2="1">
      <stop offset="0%" stop-color="#C09262"/>
      <stop offset="100%" stop-color="#9A7240"/>
    </linearGradient>
    <linearGradient id="win-l" x1="0" y1="0" x2="0" y2="1">
      <stop offset="0%" stop-color="#6A9EC2"/>
      <stop offset="60%" stop-color="#96BDD6"/>
      <stop offset="100%" stop-color="#BED4E2"/>
    </linearGradient>
    <linearGradient id="sky-art" x1="0" y1="0" x2="0" y2="1">
      <stop offset="0%" stop-color="#4E7A9C"/>
      <stop offset="50%" stop-color="#8AB4CA"/>
      <stop offset="100%" stop-color="#C0D8E0"/>
    </linearGradient>
    <radialGradient id="lamp-glow" cx="50%" cy="50%" r="50%">
      <stop offset="0%" stop-color="#F8E880" stop-opacity="0.22"/>
      <stop offset="100%" stop-color="#F8E880" stop-opacity="0"/>
    </radialGradient>
    <clipPath id="art-clip">
      <rect x="66" y="50" width="180" height="126" rx="2"/>
    </clipPath>
  </defs>

  <!-- Wall background -->
  <rect width="800" height="600" fill="url(#wall-l)"/>
  <!-- Dado lower panel tint -->
  <rect x="0" y="274" width="800" height="178" fill="#C0B8B0" opacity="0.1"/>
  <!-- Dado rail top moulding -->
  <rect x="0" y="270" width="800" height="5" fill="#C2BAB0" opacity="0.58"/>
  <rect x="0" y="274" width="800" height="1.5" fill="#AEA498" opacity="0.32"/>

  <!-- Large window (right wall) -->
  <rect x="548" y="26" width="224" height="312" rx="4" fill="url(#win-l)"/>
  <rect x="548" y="26" width="224" height="312" fill="none" stroke="#9A8A70" stroke-width="5" rx="4"/>
  <line x1="660" y1="26" x2="660" y2="338" stroke="#9A8A70" stroke-width="3.5"/>
  <line x1="548" y1="182" x2="772" y2="182" stroke="#9A8A70" stroke-width="3.5"/>
  <line x1="548" y1="104" x2="660" y2="104" stroke="#9A8A70" stroke-width="1.5" opacity="0.36"/>
  <line x1="660" y1="104" x2="772" y2="104" stroke="#9A8A70" stroke-width="1.5" opacity="0.36"/>
  <!-- Glass reflection -->
  <line x1="556" y1="34" x2="582" y2="74" stroke="white" stroke-width="3" opacity="0.28" stroke-linecap="round"/>
  <!-- Curtain rod -->
  <rect x="534" y="12" width="252" height="8" rx="4" fill="#9A8A70"/>
  <circle cx="534" cy="16" r="6" fill="#8A7A60"/>
  <circle cx="786" cy="16" r="6" fill="#8A7A60"/>
  <!-- Left curtain drape -->
  <path d="M534 20 Q550 170 544 338 L556 338 L560 20 Z" fill="#8B9E7A" opacity="0.88"/>
  <!-- Right curtain drape -->
  <path d="M772 20 Q756 170 762 338 L776 338 L786 20 Z" fill="#8B9E7A" opacity="0.88"/>
  <!-- Window sill -->
  <rect x="540" y="334" width="236" height="12" rx="3" fill="#C8B898"/>
  <rect x="540" y="334" width="236" height="5" rx="2" fill="#D8C8A8" opacity="0.38"/>
  <!-- Window light pool on floor -->
  <path d="M548 452 L772 452 L800 600 L502 600 Z" fill="#F0E8C0" opacity="0.055"/>

  <!-- Nature landscape painting (upper left) -->
  <!-- Outer frame mat -->
  <rect x="56" y="40" width="202" height="156" rx="7" fill="#F2EDE4"/>
  <rect x="56" y="40" width="202" height="156" fill="none" stroke="#BEA47E" stroke-width="3.5" rx="7"/>
  <!-- Inner frame line -->
  <rect x="62" y="46" width="190" height="144" fill="none" stroke="#D6C4A6" stroke-width="1.5" rx="4"/>
  <g clip-path="url(#art-clip)">
    <rect x="66" y="50" width="180" height="126" fill="url(#sky-art)"/>
    <circle cx="226" cy="68" r="13" fill="#F8E070" opacity="0.7"/>
    <polygon points="66,118 94,82 120,100 144,72 168,92 192,76 218,94 242,78 246,120 66,120" fill="#9EB8CA" opacity="0.58"/>
    <polygon points="66,134 84,108 108,122 130,100 154,116 176,102 200,118 224,106 246,114 246,136 66,136" fill="#6A8A6A"/>
    <path d="M66 146 Q90 136 114 142 Q136 134 160 140 Q184 133 208 139 Q228 134 246 139 L246 150 L66 150 Z" fill="#7A9A5C"/>
    <rect x="66" y="148" width="180" height="28" fill="#3A5A2E"/>
    <polygon points="76,148 72,132 80,132" fill="#2A4428"/>
    <polygon points="88,148 83,129 93,129" fill="#243C24"/>
    <polygon points="100,148 96,136 104,136" fill="#344E30"/>
    <polygon points="212,148 208,134 216,134" fill="#2A4428"/>
    <polygon points="224,148 219,130 229,130" fill="#243C24"/>
    <polygon points="236,148 232,136 240,136" fill="#344E30"/>
    <polygon points="162,148 158,140 166,140" fill="#2A4428"/>
  </g>

  <!-- Baseboard moulding -->
  <rect x="0" y="448" width="800" height="6" fill="#CAC0B4" opacity="0.55"/>
  <rect x="0" y="453" width="800" height="2" fill="#B0A498" opacity="0.32"/>
  <!-- Floor -->
  <rect x="0" y="455" width="800" height="145" fill="url(#floor-l)"/>
  <line x1="0" y1="472" x2="800" y2="472" stroke="#8A6038" stroke-width="1.5" opacity="0.36"/>
  <line x1="0" y1="492" x2="800" y2="492" stroke="#8A6038" stroke-width="1.4" opacity="0.28"/>
  <line x1="0" y1="514" x2="800" y2="514" stroke="#8A6038" stroke-width="1.2" opacity="0.22"/>
  <line x1="0" y1="538" x2="800" y2="538" stroke="#8A6038" stroke-width="1" opacity="0.18"/>
  <line x1="128" y1="455" x2="128" y2="600" stroke="#8A6038" stroke-width="1" opacity="0.2"/>
  <line x1="306" y1="455" x2="306" y2="600" stroke="#8A6038" stroke-width="1" opacity="0.2"/>
  <line x1="484" y1="455" x2="484" y2="600" stroke="#8A6038" stroke-width="1" opacity="0.2"/>
  <line x1="648" y1="455" x2="648" y2="600" stroke="#8A6038" stroke-width="1" opacity="0.2"/>

  <!-- Floor lamp (left wall corner) -->
  <!-- Lamp ambient glow on wall -->
  <ellipse cx="28" cy="188" rx="96" ry="110" fill="url(#lamp-glow)"/>
  <!-- Pole -->
  <rect x="24" y="188" width="5" height="268" rx="2" fill="#6A5840"/>
  <!-- Base weight -->
  <ellipse cx="26" cy="456" rx="18" ry="5" fill="#4A3828"/>
  <ellipse cx="26" cy="453" rx="12" ry="3.5" fill="#6A5848"/>
  <!-- Arc arm -->
  <path d="M29 188 Q58 162 68 178" stroke="#6A5840" stroke-width="4.5" fill="none" stroke-linecap="round"/>
  <!-- Shade -->
  <path d="M50 168 L88 168 L82 188 L56 188 Z" fill="#F2E0B0" opacity="0.96"/>
  <path d="M50 168 L88 168 L82 188 L56 188 Z" fill="none" stroke="#C8A870" stroke-width="1.5"/>
  <!-- Shade inner glow -->
  <ellipse cx="69" cy="188" rx="20" ry="4" fill="#F8E070" opacity="0.28"/>

  <!-- Side table (left of sofa) -->
  <!-- Table top -->
  <rect x="4" y="370" width="58" height="11" rx="4" fill="#7A6248"/>
  <rect x="4" y="370" width="58" height="4" rx="4" fill="#9A8060" opacity="0.32"/>
  <rect x="4" y="378" width="58" height="4" fill="#5A4230" opacity="0.28"/>
  <!-- Two legs -->
  <rect x="7" y="382" width="10" height="74" rx="3" fill="#6B5240"/>
  <rect x="50" y="382" width="10" height="74" rx="3" fill="#6B5240"/>
  <!-- Leg depth shadow -->
  <rect x="15" y="382" width="2" height="74" rx="1" fill="#3A2818" opacity="0.15"/>
  <rect x="58" y="382" width="2" height="74" rx="1" fill="#3A2818" opacity="0.15"/>
  <!-- Stretcher -->
  <rect x="9" y="430" width="48" height="5" rx="2" fill="#6B5240" opacity="0.72"/>
  <!-- Vase on table -->
  <rect x="22" y="352" width="14" height="20" rx="4" fill="#C8B4A0"/>
  <rect x="20" y="348" width="18" height="6" rx="3" fill="#B4A090"/>
  <rect x="24" y="353" width="4" height="13" rx="2" fill="white" opacity="0.18"/>

  <!-- Rug under coffee table -->
  <ellipse cx="300" cy="462" rx="232" ry="32" fill="#B46848" opacity="0.44"/>
  <ellipse cx="300" cy="462" rx="216" ry="27" fill="none" stroke="#9C5838" stroke-width="2.5" opacity="0.34"/>
  <ellipse cx="300" cy="462" rx="198" ry="22" fill="none" stroke="#C87858" stroke-width="1" opacity="0.2"/>

  <!-- Sofa shadow on floor -->
  <ellipse cx="296" cy="468" rx="256" ry="14" fill="#142210" opacity="0.2"/>

  <!-- SOFA -->
  <!-- Sofa base body -->
  <rect x="48" y="316" width="492" height="142" rx="18" fill="#1A3628"/>
  <!-- Front apron panel (lower face, slightly distinct) -->
  <rect x="66" y="424" width="468" height="26" fill="#223C2E" opacity="0.55"/>
  <!-- Back panel (darkest element) -->
  <rect x="48" y="272" width="492" height="58" rx="14" fill="#122018"/>

  <!-- Left arm -->
  <rect x="26" y="278" width="34" height="150" rx="10" fill="#122018"/>
  <!-- Arm top rolled surface -->
  <rect x="26" y="278" width="34" height="16" rx="8" fill="#3A6452" opacity="0.55"/>
  <!-- Arm side inner shadow -->
  <rect x="56" y="294" width="4" height="130" rx="2" fill="#0A1610" opacity="0.25"/>

  <!-- Right arm -->
  <rect x="540" y="278" width="34" height="150" rx="10" fill="#122018"/>
  <rect x="540" y="278" width="34" height="16" rx="8" fill="#3A6452" opacity="0.55"/>
  <rect x="540" y="294" width="4" height="130" rx="2" fill="#0A1610" opacity="0.25"/>

  <!-- Back cushion 1 -->
  <rect x="62" y="274" width="148" height="54" rx="10" fill="#2A5040"/>
  <rect x="62" y="274" width="148" height="54" rx="10" fill="none" stroke="#0C1A12" stroke-width="1.5" opacity="0.52"/>
  <rect x="62" y="274" width="148" height="20" rx="10" fill="#3C6450" opacity="0.3"/>
  <circle cx="136" cy="301" r="3.5" fill="#081210" opacity="0.65"/>
  <!-- Back cushion 2 -->
  <rect x="222" y="274" width="148" height="54" rx="10" fill="#2A5040"/>
  <rect x="222" y="274" width="148" height="54" rx="10" fill="none" stroke="#0C1A12" stroke-width="1.5" opacity="0.52"/>
  <rect x="222" y="274" width="148" height="20" rx="10" fill="#3C6450" opacity="0.3"/>
  <circle cx="296" cy="301" r="3.5" fill="#081210" opacity="0.65"/>
  <!-- Back cushion 3 -->
  <rect x="382" y="274" width="148" height="54" rx="10" fill="#2A5040"/>
  <rect x="382" y="274" width="148" height="54" rx="10" fill="none" stroke="#0C1A12" stroke-width="1.5" opacity="0.52"/>
  <rect x="382" y="274" width="148" height="20" rx="10" fill="#3C6450" opacity="0.3"/>
  <circle cx="456" cy="301" r="3.5" fill="#081210" opacity="0.65"/>

  <!-- Seat cushion 1 -->
  <rect x="66" y="322" width="148" height="108" rx="11" fill="#2A5040"/>
  <rect x="66" y="322" width="148" height="108" rx="11" fill="none" stroke="#0C1A12" stroke-width="1.5" opacity="0.52"/>
  <rect x="66" y="322" width="148" height="38" rx="11" fill="#3C6450" opacity="0.28"/>
  <rect x="66" y="424" width="148" height="6" fill="#081210" opacity="0.5"/>
  <circle cx="140" cy="366" r="4.5" fill="#081210" opacity="0.6"/>
  <!-- Seat cushion 2 -->
  <rect x="226" y="322" width="148" height="108" rx="11" fill="#2A5040"/>
  <rect x="226" y="322" width="148" height="108" rx="11" fill="none" stroke="#0C1A12" stroke-width="1.5" opacity="0.52"/>
  <rect x="226" y="322" width="148" height="38" rx="11" fill="#3C6450" opacity="0.28"/>
  <rect x="226" y="424" width="148" height="6" fill="#081210" opacity="0.5"/>
  <circle cx="300" cy="366" r="4.5" fill="#081210" opacity="0.6"/>
  <!-- Seat cushion 3 -->
  <rect x="386" y="322" width="146" height="108" rx="11" fill="#2A5040"/>
  <rect x="386" y="322" width="146" height="108" rx="11" fill="none" stroke="#0C1A12" stroke-width="1.5" opacity="0.52"/>
  <rect x="386" y="322" width="146" height="38" rx="11" fill="#3C6450" opacity="0.28"/>
  <rect x="386" y="424" width="146" height="6" fill="#081210" opacity="0.5"/>
  <circle cx="459" cy="366" r="4.5" fill="#081210" opacity="0.6"/>

  <!-- Sofa legs (walnut) -->
  <rect x="68" y="449" width="16" height="22" rx="4" fill="#5A4830"/>
  <rect x="262" y="449" width="16" height="22" rx="4" fill="#5A4830"/>
  <rect x="464" y="449" width="16" height="22" rx="4" fill="#5A4830"/>
  <rect x="508" y="449" width="16" height="22" rx="4" fill="#5A4830"/>

  <!-- Orange throw pillow (brand accent) -->
  <rect x="283" y="272" width="74" height="74" rx="11" fill="#E8602A" opacity="0.9"/>
  <line x1="283" y1="309" x2="357" y2="309" stroke="#B84818" stroke-width="1.5" opacity="0.28"/>
  <line x1="320" y1="272" x2="320" y2="346" stroke="#B84818" stroke-width="1.5" opacity="0.28"/>

  <!-- Coffee table (walnut) -->
  <rect x="154" y="420" width="306" height="22" rx="5" fill="#5C4A35"/>
  <rect x="154" y="420" width="306" height="6" rx="2" fill="#8A6A50" opacity="0.38"/>
  <rect x="154" y="438" width="306" height="4" rx="0" fill="#2A1808" opacity="0.38"/>
  <!-- Table top items: stacked books -->
  <rect x="166" y="412" width="64" height="9" rx="2" fill="#C8B898"/>
  <rect x="168" y="403" width="60" height="9" rx="2" fill="#B8A884"/>
  <rect x="170" y="395" width="56" height="9" rx="2" fill="#A89870"/>
  <!-- Mug -->
  <rect x="312" y="410" width="20" height="14" rx="3" fill="#D4C8B8"/>
  <rect x="310" y="406" width="24" height="6" rx="2" fill="#C4B8A4"/>
  <!-- Table legs -->
  <rect x="170" y="442" width="13" height="28" rx="4" fill="#4A3825"/>
  <rect x="435" y="442" width="13" height="28" rx="4" fill="#4A3825"/>
  <!-- Cross stretcher -->
  <rect x="178" y="456" width="252" height="5" rx="2" fill="#4A3825" opacity="0.55"/>

  <!-- Large tropical plant (right, in front of window) -->
  <!-- Stem above pot -->
  <rect x="694" y="342" width="6" height="64" rx="2" fill="#5A4A2E"/>
  <!-- Pot body (tapered ceramic) -->
  <path d="M676 455 L668 408 L728 408 L720 455 Z" fill="#8B7A5A"/>
  <!-- Pot left highlight -->
  <path d="M676 455 L668 408 L680 408 L688 455 Z" fill="#A89A72" opacity="0.36"/>
  <!-- Pot rim -->
  <rect x="663" y="401" width="70" height="10" rx="4" fill="#9A8A6A"/>
  <rect x="663" y="401" width="70" height="4" rx="4" fill="#BAA882" opacity="0.36"/>
  <!-- Soil -->
  <ellipse cx="697" cy="407" rx="27" ry="5" fill="#3A2E18" opacity="0.82"/>
  <!-- Saucer -->
  <ellipse cx="697" cy="458" rx="48" ry="7" fill="#A89878"/>
  <ellipse cx="697" cy="458" rx="48" ry="7" fill="none" stroke="#8A7A58" stroke-width="1.5"/>
  <ellipse cx="697" cy="457" rx="40" ry="5" fill="none" stroke="#9A8A68" stroke-width="1" opacity="0.42"/>
  <!-- Leaf paths -->
  <path d="M697 342 Q665 300 669 258 Q687 286 697 242 Q707 286 727 260 Q723 304 697 342Z" fill="#4E7A3C"/>
  <path d="M697 328 Q669 290 675 252 Q691 276 697 236 Q703 276 721 254 Q721 292 697 328Z" fill="#5A8A46" opacity="0.85"/>
  <path d="M697 314 Q675 280 679 246 Q691 268 697 230 Q703 266 717 248 Q715 282 697 314Z" fill="#3E6A2E" opacity="0.78"/>
  <path d="M695 300 Q655 280 633 258 Q655 266 663 250 Q669 268 695 300Z" fill="#4E7A3C" opacity="0.7"/>
  <path d="M699 286 Q739 266 759 246 Q737 254 729 240 Q727 258 699 286Z" fill="#5A8A46" opacity="0.66"/>
</svg>
